<svg xmlns="http://www.w3.org/2000/svg" width="1365" height="768" viewBox="0 0 1365 768"><style>text{font-family:DejaVu Sans,Arial,sans-serif}</style><rect width="1365" height="768" fill="#192a2f"/>
    <rect y="376" width="1365" height="768" fill="#40553d"/>
    <path d="M0 583 C 341 491, 750 637, 1365 476" fill="none" stroke="#a58d70" stroke-opacity=".42" stroke-width="44"/>
    <ellipse cx="273" cy="261" rx="327" ry="92" fill="#2e6b61" opacity=".32"/>
    
    <rect x="12" y="12" width="1341" height="56" rx="15" fill="#10171de8" stroke="#ffffff22"/>
    <text x="26" y="31" font-size="9" letter-spacing="2" font-weight="700" fill="#91a5af">SIMCLONE · RC4 PROTOTYPE</text>
    <text x="26" y="51" font-size="15" font-weight="700" fill="#edf4f5">Independent Valley</text>
    <g font-size="10" fill="#dfe8e9"><text x="240" y="46">Day 118</text><text x="310" y="46">People 14</text><text x="390" y="46">Wood 126</text><text x="470" y="46">Stone 94</text><text x="550" y="46">Coins 438</text></g>
    <g transform="translate(120,300)"><polygon points="8,50 78,6 148,50" fill="#5b4135" stroke="#2b211d" stroke-width="4"/><rect x="22" y="48" width="112" height="78" rx="3" fill="#987b58" stroke="#2c2722" stroke-width="3"/><rect x="66" y="82" width="27" height="44" fill="#3f2e28" stroke="#251c19" stroke-width="2"/><rect x="36" y="71" width="20" height="20" fill="#b6d1c3" stroke="#35413d" stroke-width="2"/><rect x="102" y="71" width="20" height="20" fill="#b6d1c3" stroke="#35413d" stroke-width="2"/><rect x="18" y="134" width="122" height="30" rx="8" fill="#0f171dcc" stroke="#ffffff22"/><text x="79" y="147" text-anchor="middle" font-size="10" font-weight="700" fill="#eef4f4">Home 09</text><text x="79" y="158" text-anchor="middle" font-size="8" fill="#98aab0">Residence</text></g><g transform="translate(500,220)"><polygon points="8,50 78,6 148,50" fill="#5b4135" stroke="#2b211d" stroke-width="4"/><rect x="22" y="48" width="112" height="78" rx="3" fill="#987b58" stroke="#2c2722" stroke-width="3"/><rect x="66" y="82" width="27" height="44" fill="#3f2e28" stroke="#251c19" stroke-width="2"/><rect x="36" y="71" width="20" height="20" fill="#b6d1c3" stroke="#35413d" stroke-width="2"/><rect x="102" y="71" width="20" height="20" fill="#b6d1c3" stroke="#35413d" stroke-width="2"/><rect x="30" y="48" width="96" height="17" rx="4" fill="#dec17c" stroke="#3a2a22" stroke-width="2"/><path d="M30 48h16v17H30zM62 48h16v17H62zM94 48h16v17H94z" fill="#75473b"/><rect x="25" y="-3" width="120" height="26" rx="6" fill="#18222a" stroke="#c5a45d" stroke-width="2"/><text x="85" y="14" text-anchor="middle" font-size="10" font-weight="700" fill="#f0dfaa">MIRA'S GOODS</text><rect x="25" y="105" width="45" height="25" rx="3" fill="#4a3727" stroke="#2a1e16" stroke-width="2"/><circle cx="37" cy="114" r="6" fill="#78917d"/><rect x="48" y="110" width="9" height="10" fill="#bf784b"/><rect x="102" y="69" width="51" height="19" rx="10" fill="#15211e" stroke="#78d39f"/><circle cx="112" cy="78.5" r="4" fill="#78d39f"/><text x="124" y="82" font-size="8" font-weight="800" fill="#78d39f">OPEN</text><rect x="18" y="134" width="122" height="30" rx="8" fill="#0f171dcc" stroke="#ffffff22"/><text x="79" y="147" text-anchor="middle" font-size="10" font-weight="700" fill="#eef4f4">Home 12</text><text x="79" y="158" text-anchor="middle" font-size="8" fill="#98aab0">Home + Market</text></g><g transform="translate(760,390)"><polygon points="8,50 78,6 148,50" fill="#5b4135" stroke="#2b211d" stroke-width="4"/><rect x="22" y="48" width="112" height="78" rx="3" fill="#987b58" stroke="#2c2722" stroke-width="3"/><rect x="66" y="82" width="27" height="44" fill="#3f2e28" stroke="#251c19" stroke-width="2"/><rect x="36" y="71" width="20" height="20" fill="#b6d1c3" stroke="#35413d" stroke-width="2"/><rect x="102" y="71" width="20" height="20" fill="#b6d1c3" stroke="#35413d" stroke-width="2"/><rect x="30" y="48" width="96" height="17" rx="4" fill="#dec17c" stroke="#3a2a22" stroke-width="2"/><path d="M30 48h16v17H30zM62 48h16v17H62zM94 48h16v17H94z" fill="#75473b"/><rect x="25" y="-3" width="120" height="26" rx="6" fill="#18222a" stroke="#c5a45d" stroke-width="2"/><text x="85" y="14" text-anchor="middle" font-size="10" font-weight="700" fill="#f0dfaa">ARIN'S FORGE</text><rect x="25" y="105" width="45" height="25" rx="3" fill="#4a3727" stroke="#2a1e16" stroke-width="2"/><circle cx="37" cy="114" r="6" fill="#78917d"/><rect x="48" y="110" width="9" height="10" fill="#bf784b"/><rect x="102" y="69" width="51" height="19" rx="10" fill="#15211e" stroke="#de8073"/><circle cx="112" cy="78.5" r="4" fill="#de8073"/><text x="124" y="82" font-size="8" font-weight="800" fill="#de8073">CLOSED</text><rect x="18" y="134" width="122" height="30" rx="8" fill="#0f171dcc" stroke="#ffffff22"/><text x="79" y="147" text-anchor="middle" font-size="10" font-weight="700" fill="#eef4f4">Home 17</text><text x="79" y="158" text-anchor="middle" font-size="8" fill="#98aab0">Home + Market</text></g><text x="410" y="560" font-size="9" fill="#edf4f5">Nok · Customer</text><text x="605" y="425" font-size="9" fill="#edf4f5">Mira · Merchant</text><g transform="translate(957,82)">
      <rect width="396" height="674" rx="18" fill="#111a22f3" stroke="#ffffff2a"/>
      <text x="18" y="25" font-size="8" letter-spacing="2" fill="#91a5af">HOME MARKET</text>
      <text x="18" y="49" font-size="20" font-weight="700" fill="#edf4f5">Mira's Goods</text>
      <text x="18" y="66" font-size="10" fill="#91a5af">Home 12 · owner Mira</text>
      <rect x="346" y="16" width="34" height="34" rx="9" fill="#1a2731" stroke="#3a5060"/><text x="363" y="39" text-anchor="middle" font-size="22" fill="#edf4f5">×</text>
      <g transform="translate(14,80)"><rect width="112" height="36" rx="9" fill="#263a43"/><text x="56" y="23" text-anchor="middle" font-size="10" fill="#dff6ec">Market</text><rect x="120" width="112" height="36" rx="9" fill="#1a2731"/><text x="176" y="23" text-anchor="middle" font-size="10" fill="#b9c6ca">Merchant</text><rect x="240" width="112" height="36" rx="9" fill="#1a2731"/><text x="296" y="23" text-anchor="middle" font-size="10" fill="#b9c6ca">Intent log</text></g>
      <rect x="18" y="132" width="58" height="22" rx="11" fill="#173026" stroke="#3c7659"/><circle cx="29" cy="143" r="4" fill="#78d39f"/><text x="39" y="147" font-size="9" font-weight="700" fill="#92e0b6">OPEN</text>
      <text x="378" y="147" text-anchor="end" font-size="8" fill="#91a5af">market-mira</text>
      <g transform="translate(18,166)">
        <rect width="170" height="66" rx="11" fill="#18242c"/><text x="12" y="18" font-size="8" fill="#91a5af">Stock</text><text x="12" y="43" font-size="18" font-weight="700" fill="#edf4f5">17</text><text x="12" y="56" font-size="8" fill="#91a5af">canonical item refs</text>
        <rect x="180" width="170" height="66" rx="11" fill="#18242c"/><text x="192" y="18" font-size="8" fill="#91a5af">Revenue</text><text x="192" y="43" font-size="18" font-weight="700" fill="#edf4f5">268</text><text x="192" y="56" font-size="8" fill="#91a5af">verified sales</text>
        <rect y="74" width="170" height="66" rx="11" fill="#18242c"/><text x="12" y="92" font-size="8" fill="#91a5af">COGS</text><text x="12" y="117" font-size="18" font-weight="700" fill="#edf4f5">171</text><text x="12" y="130" font-size="8" fill="#91a5af">realized only</text>
        <rect x="180" y="74" width="170" height="66" rx="11" fill="#18242c"/><text x="192" y="92" font-size="8" fill="#91a5af">Realized profit</text><text x="192" y="117" font-size="18" font-weight="700" fill="#edf4f5">97</text><text x="192" y="130" font-size="8" fill="#91a5af">revenue - COGS</text>
      </g>
      <text x="18" y="329" font-size="12" font-weight="700" fill="#edf4f5">Listings</text><text x="378" y="329" text-anchor="end" font-size="8" fill="#91a5af">3 active</text>
      <g transform="translate(18,340)"><rect width="360" height="50" rx="10" fill="#172128" stroke="#2b3d4b"/><rect x="8" y="8" width="34" height="34" rx="8" fill="#25333b"/><text x="25" y="30" text-anchor="middle" font-size="15" fill="#e9d18b">◆</text><text x="52" y="21" font-size="10" font-weight="700" fill="#edf4f5">Iron Pickaxe</text><text x="52" y="36" font-size="8" fill="#91a5af">qty 3 · stock 3</text><text x="350" y="24" text-anchor="end" font-size="11" font-weight="700" fill="#edf4f5">38 / ea</text></g>
      <g transform="translate(18,398)"><rect width="360" height="50" rx="10" fill="#172128" stroke="#2b3d4b"/><rect x="8" y="8" width="34" height="34" rx="8" fill="#25333b"/><text x="25" y="30" text-anchor="middle" font-size="15" fill="#e9d18b">◆</text><text x="52" y="21" font-size="10" font-weight="700" fill="#edf4f5">Charcoal</text><text x="52" y="36" font-size="8" fill="#91a5af">qty 8 · stock 8</text><text x="350" y="24" text-anchor="end" font-size="11" font-weight="700" fill="#edf4f5">7 / ea</text></g>
      <g transform="translate(18,456)"><rect width="360" height="50" rx="10" fill="#172128" stroke="#2b3d4b"/><rect x="8" y="8" width="34" height="34" rx="8" fill="#25333b"/><text x="25" y="30" text-anchor="middle" font-size="15" fill="#e9d18b">◆</text><text x="52" y="21" font-size="10" font-weight="700" fill="#edf4f5">Hide Armor</text><text x="52" y="36" font-size="8" fill="#91a5af">qty 1 · stock 1</text><text x="350" y="24" text-anchor="end" font-size="11" font-weight="700" fill="#edf4f5">64 / ea</text></g>
      <text x="18" y="534" font-size="12" font-weight="700" fill="#edf4f5">Buy offers</text><text x="378" y="534" text-anchor="end" font-size="8" fill="#91a5af">2 open</text>
      <g transform="translate(18,545)"><rect width="360" height="40" rx="9" fill="#172128" stroke="#2b3d4b"/><text x="12" y="17" font-size="9" font-weight="700" fill="#edf4f5">Iron Ore</text><text x="12" y="31" font-size="8" fill="#91a5af">want 10</text><text x="350" y="24" text-anchor="end" font-size="10" font-weight="700" fill="#efd88c">6 bid</text></g>
      <g transform="translate(18,592)"><rect width="360" height="40" rx="9" fill="#172128" stroke="#2b3d4b"/><text x="12" y="17" font-size="9" font-weight="700" fill="#edf4f5">Wood</text><text x="12" y="31" font-size="8" fill="#91a5af">want 20</text><text x="350" y="24" text-anchor="end" font-size="10" font-weight="700" fill="#efd88c">2 bid</text></g>
      <rect x="18" y="648" width="360" height="58" rx="9" fill="#18282a"/><rect x="18" y="648" width="3" height="58" fill="#5d8f83"/><text x="30" y="667" font-size="9" font-weight="700" fill="#edf4f5">UI authority lock</text><text x="30" y="684" font-size="8" fill="#b4c6c6">snapshot → display · tap → command intent</text><text x="30" y="697" font-size="8" fill="#b4c6c6">no wallet / item / ledger / profession writes</text>
    </g></svg>